<svg width="449" height="261" viewBox="0 0 449 261" fill="none" xmlns="http://www.w3.org/2000/svg">
<path d="M314 170C330.569 170 344 183.431 344 200C344 216.569 330.569 230 314 230C297.431 230 284 216.569 284 200C284 183.431 297.431 170 314 170ZM314 172C298.536 172 286 184.536 286 200C286 215.464 298.536 228 314 228C329.464 228 342 215.464 342 200C342 184.536 329.464 172 314 172Z" fill="white"/>
<path d="M366 118C382.569 118 396 131.431 396 148C396 164.569 382.569 178 366 178C349.431 178 336 164.569 336 148C336 131.431 349.431 118 366 118ZM366 120C350.536 120 338 132.536 338 148C338 163.464 350.536 176 366 176C381.464 176 394 163.464 394 148C394 132.536 381.464 120 366 120Z" fill="white"/>
<path d="M262 118C278.569 118 292 131.431 292 148C292 164.569 278.569 178 262 178C245.431 178 232 164.569 232 148C232 131.431 245.431 118 262 118ZM262 120C246.536 120 234 132.536 234 148C234 163.464 246.536 176 262 176C277.464 176 290 163.464 290 148C290 132.536 277.464 120 262 120Z" fill="white"/>
<g clip-path="url(#clip0_550_219)">
<circle cx="113.999" cy="168.593" r="55.9346" stroke="white" stroke-width="2.9453"/>
</g>
<mask id="path-5-outside-1_550_219" maskUnits="userSpaceOnUse" x="79.4648" y="8.55664" width="71" height="81" fill="black">
<rect fill="white" x="79.4648" y="8.55664" width="71" height="81"/>
<path d="M139.422 11.5566C143.495 11.5567 146.824 14.8528 146.717 18.9248C146.062 43.6277 140.264 80.4051 90.4851 86.0479C84.6373 86.7106 80.7979 80.0419 83.1931 74.666C86.3442 67.5944 89.4617 58.2923 89.4617 49.1709C89.4617 40.0496 86.3442 30.7474 83.1931 23.6758C80.7979 18.2999 84.591 11.5567 90.4763 11.5566H139.422Z"/>
</mask>
<path d="M139.422 11.5566L139.422 8.68982H139.422V11.5566ZM146.717 18.9248L149.582 19.0007L149.582 19.0007L146.717 18.9248ZM90.4851 86.0479L90.8079 88.8964L90.808 88.8964L90.4851 86.0479ZM83.1931 74.666L80.5745 73.4992L80.5745 73.4992L83.1931 74.666ZM89.4617 49.1709L92.3285 49.1709L92.3285 49.1709L89.4617 49.1709ZM83.1931 23.6758L80.5745 24.8425L80.5745 24.8426L83.1931 23.6758ZM90.4763 11.5566L90.4763 8.68982L90.4763 8.68982L90.4763 11.5566ZM139.422 11.5566L139.422 14.4235C141.945 14.4235 143.914 16.4512 143.851 18.8489L146.717 18.9248L149.582 19.0007C149.735 13.2543 145.046 8.68985 139.422 8.68982L139.422 11.5566ZM146.717 18.9248L143.851 18.8489C143.527 31.0903 141.921 45.8365 134.561 58.1643C127.315 70.301 114.263 80.4673 90.1622 83.1993L90.4851 86.0479L90.808 88.8964C116.486 85.9856 131.222 74.9419 139.484 61.1034C147.632 47.4562 149.252 31.4623 149.582 19.0007L146.717 18.9248ZM90.4851 86.0479L90.1623 83.1993C88.5201 83.3854 87.097 82.5904 86.1881 81.1166C85.2556 79.6046 85.0284 77.5909 85.8118 75.8328L83.1931 74.666L80.5745 73.4992C78.9625 77.117 79.4574 81.1256 81.3078 84.1262C83.1818 87.165 86.6023 89.3731 90.8079 88.8964L90.4851 86.0479ZM83.1931 74.666L85.8117 75.8329C89.0299 68.6106 92.3285 58.8781 92.3285 49.1709H89.4617H86.5949C86.5949 57.7064 83.6584 66.5783 80.5745 73.4992L83.1931 74.666ZM89.4617 49.1709L92.3285 49.1709C92.3285 39.4637 89.0299 29.7312 85.8117 22.5089L83.1931 23.6758L80.5745 24.8426C83.6584 31.7635 86.5949 40.6354 86.5949 49.1709L89.4617 49.1709ZM83.1931 23.6758L85.8118 22.509C85.0313 20.7573 85.2329 18.7016 86.2016 17.0519C87.1606 15.4189 88.7151 14.4235 90.4764 14.4235L90.4763 11.5566L90.4763 8.68982C86.3523 8.68987 83.0675 11.0661 81.2574 14.1486C79.457 17.2146 78.9598 21.2184 80.5745 24.8425L83.1931 23.6758ZM90.4763 11.5566V14.4235H139.422V11.5566V8.68982H90.4763V11.5566Z" fill="white" mask="url(#path-5-outside-1_550_219)"/>
<mask id="path-7-outside-2_550_219" maskUnits="userSpaceOnUse" x="265.596" y="6.40625" width="71" height="81" fill="black">
<rect fill="white" x="265.596" y="6.40625" width="71" height="81"/>
<path d="M324.838 9.40625C330.724 9.40656 334.517 16.1506 332.122 21.5264C328.971 28.5979 325.852 37.8993 325.852 47.0205C325.852 56.1419 328.971 65.444 332.122 72.5156C334.517 77.8916 330.677 84.5604 324.829 83.8975C275.05 78.2545 269.252 41.4773 268.598 16.7744C268.49 12.7024 271.82 9.40625 275.893 9.40625H324.838Z"/>
</mask>
<path d="M324.838 9.40625L324.839 6.53943H324.838V9.40625ZM332.122 21.5264L329.503 20.3595L329.503 20.3595L332.122 21.5264ZM325.852 47.0205L322.985 47.0205V47.0205H325.852ZM332.122 72.5156L334.74 71.3488L334.74 71.3488L332.122 72.5156ZM324.829 83.8975L324.506 86.746L324.506 86.746L324.829 83.8975ZM268.598 16.7744L265.732 16.8503L265.732 16.8503L268.598 16.7744ZM324.838 9.40625L324.838 12.2731C326.599 12.2732 328.154 13.2687 329.113 14.9021C330.082 16.552 330.284 18.6079 329.503 20.3595L332.122 21.5264L334.74 22.6932C336.355 19.069 335.858 15.065 334.057 11.9989C332.247 8.91628 328.963 6.53965 324.839 6.53943L324.838 9.40625ZM332.122 21.5264L329.503 20.3595C326.285 27.5814 322.985 37.3133 322.985 47.0205L325.852 47.0205L328.719 47.0205C328.719 38.4854 331.656 29.6143 334.74 22.6932L332.122 21.5264ZM325.852 47.0205H322.985C322.985 56.7278 326.285 66.4604 329.503 73.6825L332.122 72.5156L334.74 71.3488C331.656 64.4276 328.719 55.5559 328.719 47.0205H325.852ZM332.122 72.5156L329.503 73.6824C330.286 75.4404 330.059 77.4541 329.126 78.9661C328.217 80.4401 326.794 81.2351 325.152 81.0489L324.829 83.8975L324.506 86.746C328.711 87.2228 332.132 85.0148 334.007 81.9761C335.857 78.9755 336.352 74.9668 334.74 71.3488L332.122 72.5156ZM324.829 83.8975L325.152 81.0489C301.051 78.3168 287.999 68.1505 280.753 56.0139C273.394 43.686 271.788 28.9399 271.464 16.6985L268.598 16.7744L265.732 16.8503C266.062 29.3118 267.683 45.3057 275.83 58.9529C284.092 72.7913 298.828 83.8351 324.506 86.746L324.829 83.8975ZM268.598 16.7744L271.464 16.6985C271.401 14.3008 273.37 12.2731 275.893 12.2731V9.40625V6.53943C270.269 6.53943 265.58 11.104 265.732 16.8503L268.598 16.7744ZM275.893 9.40625V12.2731H324.838V9.40625V6.53943H275.893V9.40625Z" fill="white" mask="url(#path-7-outside-2_550_219)"/>
<path d="M342.024 41.6385V39.3865H354.249V41.6385H349.584V55H346.689V41.6385H342.024ZM356.072 55V39.3865H358.967V45.7992H365.498V39.3865H368.382V55H365.498V48.094H358.967V55H356.072ZM371.578 55V39.3865H377.079C378.795 39.3865 380.128 39.8154 381.079 40.6733C382.037 41.5312 382.516 42.7037 382.516 44.1907C382.516 45.692 382.033 46.8858 381.068 47.7723C380.11 48.6517 378.777 49.0913 377.068 49.0913H374.473V55H371.578ZM374.473 46.9466H376.907C377.908 46.9466 378.609 46.6964 379.009 46.196C379.417 45.6884 379.621 45.0342 379.621 44.2336C379.621 43.4329 379.417 42.7894 379.009 42.3033C378.609 41.8172 377.908 41.5741 376.907 41.5741H374.473V46.9466ZM380.049 55L376.425 47.8474L379.352 47.5471L383.256 55H380.049ZM384.521 47.6651V46.7214C384.521 44.2193 385.147 42.3212 386.398 41.0272C387.649 39.7332 389.261 39.0862 391.234 39.0862C393.207 39.0862 394.823 39.7332 396.081 41.0272C397.339 42.3212 397.969 44.2193 397.969 46.7214V47.6651C397.969 50.1673 397.339 52.0653 396.081 53.3593C394.823 54.6533 393.207 55.3003 391.234 55.3003C389.261 55.3003 387.649 54.6533 386.398 53.3593C385.147 52.0653 384.521 50.1673 384.521 47.6651ZM387.481 47.9653C387.481 49.6668 387.82 50.9429 388.5 51.7937C389.179 52.6372 390.09 53.059 391.234 53.059C392.378 53.059 393.293 52.6372 393.979 51.7937C394.666 50.9429 395.009 49.6668 395.009 47.9653V46.4212C395.009 44.7268 394.666 43.4543 393.979 42.6036C393.293 41.7528 392.378 41.3275 391.234 41.3275C390.09 41.3275 389.179 41.7528 388.5 42.6036C387.82 43.4543 387.481 44.7268 387.481 46.4212V47.9653ZM398.966 41.6385V39.3865H411.191V41.6385H406.526V55H403.631V41.6385H398.966ZM411.813 41.6385V39.3865H424.038V41.6385H419.373V55H416.477V41.6385H411.813ZM425.861 55V39.3865H428.756V52.7481H435.587V55H425.861ZM437.614 55V39.3865H447.715V41.6385H440.477V45.8743H446.739V48.0726H440.477V52.7588H447.833V55H437.614Z" fill="white"/>
<path d="M2.10594 55V39.3865H7.70364C9.34077 39.3865 10.6169 39.7225 11.5319 40.3945C12.447 41.0594 12.9046 42.0888 12.9046 43.4829C12.9046 44.3479 12.7008 45.0593 12.2933 45.6169C11.893 46.1745 11.3925 46.557 10.792 46.7643V46.8072C11.5355 47.0217 12.1468 47.4399 12.6257 48.0619C13.1047 48.6838 13.3442 49.5095 13.3442 50.539C13.3442 51.9474 12.8581 53.0447 11.8858 53.8311C10.9136 54.6104 9.61958 55 8.0039 55H2.10594ZM4.95841 52.8982H7.85377C8.7474 52.8982 9.40511 52.673 9.8269 52.2226C10.2487 51.7722 10.4596 51.161 10.4596 50.3889C10.4596 49.6239 10.2487 49.0163 9.8269 48.5659C9.40511 48.1155 8.7474 47.8903 7.85377 47.8903H4.95841V52.8982ZM4.95841 45.9279H7.55351C8.44714 45.9279 9.09055 45.7348 9.48375 45.3488C9.87694 44.9556 10.0735 44.4051 10.0735 43.6974C10.0735 42.9896 9.87694 42.4499 9.48375 42.0781C9.09055 41.6992 8.44714 41.5098 7.55351 41.5098H4.95841V45.9279ZM15.8321 55V39.3865H21.3333C23.049 39.3865 24.3823 39.8154 25.3332 40.6733C26.2911 41.5312 26.7701 42.7037 26.7701 44.1907C26.7701 45.692 26.2876 46.8858 25.3224 47.7723C24.3645 48.6517 23.0312 49.0913 21.3226 49.0913H18.7275V55H15.8321ZM18.7275 46.9466H21.1617C22.1626 46.9466 22.8632 46.6964 23.2635 46.196C23.671 45.6884 23.8748 45.0342 23.8748 44.2336C23.8748 43.4329 23.671 42.7894 23.2635 42.3033C22.8632 41.8172 22.1626 41.5741 21.1617 41.5741H18.7275V46.9466ZM24.3037 55L20.6791 47.8474L23.6067 47.5471L27.51 55H24.3037ZM27.5637 55L33.29 39.3114H36.2926L42.0726 55H39.0379L35.0701 43.6974C34.9844 43.4472 34.9129 43.2112 34.8557 42.9896C34.8056 42.768 34.7556 42.5464 34.7055 42.3248H34.6198C34.5769 42.5464 34.5268 42.768 34.4696 42.9896C34.4124 43.2112 34.3409 43.4472 34.2552 43.6974L30.3089 55H27.5637ZM30.5448 51.3647L31.2097 49.2093H38.255L38.9199 51.3647H30.5448ZM43.4989 55V39.3865H46.3942V46.1852L52.2815 39.3865H55.4556L46.3942 49.6382V55H43.4989ZM52.6461 55L47.1341 47.2898L48.9679 45.2094L56.1205 55H52.6461ZM57.3108 55V39.3865H67.4124V41.6385H60.174V45.8743H66.4365V48.0726H60.174V52.7588H67.5303V55H57.3108Z" fill="white"/>
<path d="M83.0809 251.657V251.325H85.9548V251.603C85.9548 252.433 86.2158 253.055 86.7376 253.469C87.2667 253.884 88.003 254.091 88.9467 254.091C89.8904 254.091 90.6124 253.891 91.1128 253.491C91.6133 253.09 91.8635 252.561 91.8635 251.904C91.8635 251.26 91.6204 250.756 91.1343 250.392C90.6482 250.027 89.658 249.634 88.1639 249.212C86.5267 248.754 85.3114 248.168 84.5179 247.453C83.7315 246.738 83.3383 245.755 83.3383 244.504C83.3383 243.182 83.8316 242.117 84.8181 241.309C85.8118 240.494 87.1559 240.086 88.8502 240.086C90.5373 240.086 91.8885 240.501 92.9037 241.33C93.926 242.159 94.4371 243.26 94.4371 244.633V244.933H91.5954V244.697C91.5954 243.975 91.3666 243.396 90.9091 242.96C90.4516 242.524 89.7724 242.306 88.8716 242.306C87.9565 242.306 87.2845 242.488 86.8556 242.853C86.4338 243.21 86.2229 243.697 86.2229 244.311C86.2229 244.898 86.4552 245.352 86.9199 245.673C87.3846 245.995 88.3712 246.367 89.8796 246.788C91.4882 247.246 92.6999 247.847 93.5149 248.59C94.3299 249.326 94.741 250.37 94.7481 251.721C94.7481 253.137 94.2191 254.256 93.161 255.078C92.1101 255.893 90.7089 256.3 88.9574 256.3C87.213 256.3 85.7975 255.9 84.7109 255.099C83.6242 254.299 83.0809 253.151 83.0809 251.657ZM95.7025 242.638V240.387H107.927V242.638H103.263V256H100.367V242.638H95.7025ZM109.75 256V240.387H119.852V242.638H112.614V246.874H118.876V249.073H112.614V253.759H119.97V256H109.75ZM122.19 256V240.387H132.291V242.638H125.053V246.874H131.315V249.073H125.053V253.759H132.409V256H122.19ZM134.629 256V240.387H140.13C141.846 240.387 143.179 240.815 144.13 241.673C145.088 242.531 145.567 243.704 145.567 245.191C145.567 246.692 145.084 247.886 144.119 248.772C143.161 249.652 141.828 250.091 140.119 250.091H137.524V256H134.629ZM137.524 247.947H139.959C140.96 247.947 141.66 247.696 142.06 247.196C142.468 246.688 142.672 246.034 142.672 245.234C142.672 244.433 142.468 243.789 142.06 243.303C141.66 242.817 140.96 242.574 139.959 242.574H137.524V247.947ZM143.101 256L139.476 248.847L142.404 248.547L146.307 256H143.101Z" fill="white"/>
<path d="M271.943 256V240.387H282.045V242.638H274.807V246.874H281.069V249.073H274.807V253.759H282.163V256H271.943ZM283.589 250.434V248.032H289.723V250.434H283.589ZM291.975 256V240.387H297.573C299.21 240.387 300.486 240.723 301.401 241.395C302.316 242.059 302.774 243.089 302.774 244.483C302.774 245.348 302.57 246.059 302.162 246.617C301.762 247.175 301.262 247.557 300.661 247.764V247.807C301.405 248.022 302.016 248.44 302.495 249.062C302.974 249.684 303.213 250.51 303.213 251.539C303.213 252.947 302.727 254.045 301.755 254.831C300.783 255.61 299.489 256 297.873 256H291.975ZM294.828 253.898H297.723C298.617 253.898 299.274 253.673 299.696 253.223C300.118 252.772 300.329 252.161 300.329 251.389C300.329 250.624 300.118 250.016 299.696 249.566C299.274 249.115 298.617 248.89 297.723 248.89H294.828V253.898ZM294.828 246.928H297.423C298.316 246.928 298.96 246.735 299.353 246.349C299.746 245.956 299.943 245.405 299.943 244.697C299.943 243.99 299.746 243.45 299.353 243.078C298.96 242.699 298.316 242.51 297.423 242.51H294.828V246.928ZM305.701 256V240.387H311.202C312.918 240.387 314.251 240.815 315.202 241.673C316.16 242.531 316.639 243.704 316.639 245.191C316.639 246.692 316.157 247.886 315.192 248.772C314.234 249.652 312.9 250.091 311.192 250.091H308.597V256H305.701ZM308.597 247.947H311.031C312.032 247.947 312.732 247.696 313.133 247.196C313.54 246.688 313.744 246.034 313.744 245.234C313.744 244.433 313.54 243.789 313.133 243.303C312.732 242.817 312.032 242.574 311.031 242.574H308.597V247.947ZM314.173 256L310.548 248.847L313.476 248.547L317.379 256H314.173ZM317.433 256L323.159 240.311H326.162L331.942 256H328.907L324.939 244.697C324.853 244.447 324.782 244.211 324.725 243.99C324.675 243.768 324.625 243.546 324.575 243.325H324.489C324.446 243.546 324.396 243.768 324.339 243.99C324.282 244.211 324.21 244.447 324.124 244.697L320.178 256H317.433ZM320.414 252.365L321.079 250.209H328.124L328.789 252.365H320.414ZM333.368 256V240.387H336.263V247.185L342.151 240.387H345.325L336.263 250.638V256H333.368ZM342.515 256L337.003 248.29L338.837 246.209L345.99 256H342.515ZM347.18 256V240.387H357.282V242.638H350.043V246.874H356.306V249.073H350.043V253.759H357.399V256H347.18Z" fill="white"/>
<defs>
<clipPath id="clip0_550_219">
<rect width="114.814" height="114.814" fill="white" transform="translate(56.5918 111.186)"/>
</clipPath>
</defs>
</svg>
