<svg width="455" height="246" viewBox="0 0 455 246" fill="none" xmlns="http://www.w3.org/2000/svg">
<path d="M320 155C336.569 155 350 168.431 350 185C350 201.569 336.569 215 320 215C303.431 215 290 201.569 290 185C290 168.431 303.431 155 320 155ZM320 157C304.536 157 292 169.536 292 185C292 200.464 304.536 213 320 213C335.464 213 348 200.464 348 185C348 169.536 335.464 157 320 157Z" fill="white"/>
<path d="M372 103C388.569 103 402 116.431 402 133C402 149.569 388.569 163 372 163C355.431 163 342 149.569 342 133C342 116.431 355.431 103 372 103ZM372 105C356.536 105 344 117.536 344 133C344 148.464 356.536 161 372 161C387.464 161 400 148.464 400 133C400 117.536 387.464 105 372 105Z" fill="white"/>
<path d="M268 103C284.569 103 298 116.431 298 133C298 149.569 284.569 163 268 163C251.431 163 238 149.569 238 133C238 116.431 251.431 103 268 103ZM268 105C252.536 105 240 117.536 240 133C240 148.464 252.536 161 268 161C283.464 161 296 148.464 296 133C296 117.536 283.464 105 268 105Z" fill="white"/>
<g clip-path="url(#clip0_550_219)">
<circle cx="119.999" cy="153.593" r="55.9346" stroke="white" stroke-width="2.9453"/>
</g>
<mask id="path-5-outside-1_550_219" maskUnits="userSpaceOnUse" x="95" y="5.5" width="50" height="57" fill="black">
<rect fill="white" x="95" y="5.5" width="50" height="57"/>
<path d="M137.736 7.5C140.577 7.50003 142.9 9.79984 142.824 12.6406C142.368 29.8743 138.323 55.5311 103.596 59.4678C99.5161 59.9302 96.8369 55.2778 98.508 51.5273C100.706 46.5939 102.882 40.1046 102.882 33.7412C102.882 27.3778 100.706 20.8885 98.508 15.9551C96.8371 12.2048 99.4835 7.50033 103.589 7.5H137.736Z"/>
</mask>
<path d="M137.736 7.5L137.736 5.5H137.736V7.5ZM142.824 12.6406L144.824 12.6936L144.824 12.6936L142.824 12.6406ZM103.596 59.4678L103.821 61.455L103.821 61.455L103.596 59.4678ZM98.508 51.5273L96.6812 50.7133L96.6812 50.7133L98.508 51.5273ZM102.882 33.7412L104.882 33.7412L104.882 33.7412L102.882 33.7412ZM98.508 15.9551L96.6811 16.769L96.6812 16.7691L98.508 15.9551ZM103.589 7.5L103.589 5.5L103.589 5.5L103.589 7.5ZM137.736 7.5L137.736 9.5C139.495 9.50002 140.869 10.9146 140.825 12.5877L142.824 12.6406L144.824 12.6936C144.93 8.68504 141.659 5.50005 137.736 5.5L137.736 7.5ZM142.824 12.6406L140.825 12.5877C140.599 21.1277 139.479 31.4151 134.345 40.0154C129.29 48.4823 120.184 55.5745 103.371 57.4805L103.596 59.4678L103.821 61.455C121.735 59.4243 132.015 51.7199 137.779 42.0658C143.463 32.545 144.593 21.3872 144.824 12.6936L142.824 12.6406ZM103.596 59.4678L103.371 57.4805C102.225 57.6104 101.232 57.0558 100.598 56.0275C99.947 54.9726 99.7884 53.5678 100.335 52.3414L98.508 51.5273L96.6812 50.7133C95.5565 53.2374 95.902 56.034 97.1931 58.1273C98.5007 60.2473 100.887 61.7876 103.821 61.455L103.596 59.4678ZM98.508 51.5273L100.335 52.3414C102.58 47.3031 104.882 40.5134 104.882 33.7412H102.882H100.882C100.882 39.6958 98.8327 45.8848 96.6812 50.7133L98.508 51.5273ZM102.882 33.7412L104.882 33.7412C104.882 26.969 102.58 20.1793 100.335 15.1411L98.508 15.9551L96.6812 16.7691C98.8327 21.5976 100.882 27.7867 100.882 33.7412L102.882 33.7412ZM98.508 15.9551L100.335 15.1411C99.7905 13.9191 99.9311 12.485 100.607 11.334C101.276 10.1946 102.361 9.5001 103.589 9.5L103.589 7.5L103.589 5.5C100.712 5.50023 98.4205 7.15814 97.1577 9.30858C95.9017 11.4475 95.5547 14.2407 96.6811 16.769L98.508 15.9551ZM103.589 7.5V9.5H137.736V7.5V5.5H103.589V7.5Z" fill="white" mask="url(#path-5-outside-1_550_219)"/>
<mask id="path-7-outside-2_550_219" maskUnits="userSpaceOnUse" x="287" y="4" width="49" height="57" fill="black">
<rect fill="white" x="287" y="4" width="49" height="57"/>
<path d="M328.237 6C332.343 6.00028 334.989 10.7048 333.318 14.4551C331.12 19.3885 328.944 25.8778 328.944 32.2412C328.944 38.6046 331.12 45.0939 333.318 50.0273C334.989 53.7778 332.31 58.4302 328.23 57.9678C293.503 54.0311 289.458 28.3743 289.002 11.1406C288.927 8.29986 291.249 6.00007 294.091 6H328.237Z"/>
</mask>
<path d="M328.237 6L328.237 4H328.237V6ZM333.318 14.4551L335.145 15.2691L335.145 15.269L333.318 14.4551ZM328.944 32.2412L326.944 32.2412V32.2412H328.944ZM333.318 50.0273L335.145 49.2133L335.145 49.2133L333.318 50.0273ZM328.23 57.9678L328.005 59.955L328.005 59.955L328.23 57.9678ZM289.002 11.1406L287.002 11.1936L287.002 11.1936L289.002 11.1406ZM294.091 6L294.091 4L294.091 4L294.091 6ZM328.237 6L328.237 8C329.466 8.00008 330.55 8.69457 331.219 9.834C331.895 10.985 332.036 12.4191 331.491 13.6411L333.318 14.4551L335.145 15.269C336.272 12.7407 335.925 9.94749 334.669 7.80856C333.406 5.6581 331.114 4.0002 328.237 4L328.237 6ZM333.318 14.4551L331.491 13.6411C329.246 18.6793 326.944 25.469 326.944 32.2412L328.944 32.2412L330.944 32.2412C330.944 26.2867 332.993 20.0976 335.145 15.2691L333.318 14.4551ZM328.944 32.2412H326.944C326.944 39.0134 329.246 45.8031 331.491 50.8414L333.318 50.0273L335.145 49.2133C332.993 44.3848 330.944 38.1958 330.944 32.2412H328.944ZM333.318 50.0273L331.491 50.8414C332.038 52.0678 331.879 53.4726 331.229 54.5275C330.594 55.5558 329.601 56.1104 328.456 55.9805L328.23 57.9678L328.005 59.955C330.939 60.2876 333.326 58.7473 334.633 56.6273C335.924 54.534 336.27 51.7374 335.145 49.2133L333.318 50.0273ZM328.23 57.9678L328.456 55.9805C311.642 54.0745 302.536 46.9822 297.482 38.5153C292.347 29.9151 291.227 19.6277 291.001 11.0877L289.002 11.1406L287.002 11.1936C287.233 19.8872 288.363 31.045 294.047 40.5658C299.811 50.2199 310.091 57.9243 328.005 59.955L328.23 57.9678ZM289.002 11.1406L291.001 11.0877C290.957 9.41468 292.331 8.00004 294.091 8L294.091 6L294.091 4C290.167 4.00009 286.896 7.18503 287.002 11.1936L289.002 11.1406ZM294.091 6V8H328.237V6V4H294.091V6Z" fill="white" mask="url(#path-7-outside-2_550_219)"/>
<path d="M348.024 26.6385V24.3865H360.249V26.6385H355.584V40H352.689V26.6385H348.024ZM362.072 40V24.3865H364.967V30.7992H371.498V24.3865H374.382V40H371.498V33.094H364.967V40H362.072ZM377.578 40V24.3865H383.079C384.795 24.3865 386.128 24.8154 387.079 25.6733C388.037 26.5312 388.516 27.7037 388.516 29.1907C388.516 30.692 388.033 31.8858 387.068 32.7723C386.11 33.6517 384.777 34.0913 383.068 34.0913H380.473V40H377.578ZM380.473 31.9466H382.907C383.908 31.9466 384.609 31.6964 385.009 31.196C385.417 30.6884 385.621 30.0342 385.621 29.2336C385.621 28.4329 385.417 27.7894 385.009 27.3033C384.609 26.8172 383.908 26.5741 382.907 26.5741H380.473V31.9466ZM386.049 40L382.425 32.8474L385.352 32.5471L389.256 40H386.049ZM390.521 32.6651V31.7214C390.521 29.2193 391.147 27.3212 392.398 26.0272C393.649 24.7332 395.261 24.0862 397.234 24.0862C399.207 24.0862 400.823 24.7332 402.081 26.0272C403.339 27.3212 403.969 29.2193 403.969 31.7214V32.6651C403.969 35.1673 403.339 37.0653 402.081 38.3593C400.823 39.6533 399.207 40.3003 397.234 40.3003C395.261 40.3003 393.649 39.6533 392.398 38.3593C391.147 37.0653 390.521 35.1673 390.521 32.6651ZM393.481 32.9653C393.481 34.6668 393.82 35.9429 394.5 36.7937C395.179 37.6372 396.09 38.059 397.234 38.059C398.378 38.059 399.293 37.6372 399.979 36.7937C400.666 35.9429 401.009 34.6668 401.009 32.9653V31.4212C401.009 29.7268 400.666 28.4543 399.979 27.6036C399.293 26.7528 398.378 26.3275 397.234 26.3275C396.09 26.3275 395.179 26.7528 394.5 27.6036C393.82 28.4543 393.481 29.7268 393.481 31.4212V32.9653ZM404.966 26.6385V24.3865H417.191V26.6385H412.526V40H409.631V26.6385H404.966ZM417.813 26.6385V24.3865H430.038V26.6385H425.373V40H422.477V26.6385H417.813ZM431.861 40V24.3865H434.756V37.7481H441.587V40H431.861ZM443.614 40V24.3865H453.715V26.6385H446.477V30.8743H452.739V33.0726H446.477V37.7588H453.833V40H443.614Z" fill="white"/>
<path d="M1.97508 40V24.3865H7.57278C9.20991 24.3865 10.486 24.7225 11.4011 25.3945C12.3162 26.0594 12.7737 27.0888 12.7737 28.4829C12.7737 29.3479 12.57 30.0593 12.1625 30.6169C11.7621 31.1745 11.2617 31.557 10.6612 31.7643V31.8072C11.4047 32.0217 12.0159 32.4399 12.4949 33.0619C12.9739 33.6838 13.2134 34.5095 13.2134 35.539C13.2134 36.9474 12.7272 38.0447 11.755 38.8311C10.7827 39.6104 9.48872 40 7.87304 40H1.97508ZM4.82755 37.8982H7.72291C8.61654 37.8982 9.27425 37.673 9.69604 37.2226C10.1178 36.7722 10.3287 36.161 10.3287 35.3889C10.3287 34.6239 10.1178 34.0163 9.69604 33.5659C9.27425 33.1155 8.61654 32.8903 7.72291 32.8903H4.82755V37.8982ZM4.82755 30.9279H7.42265C8.31628 30.9279 8.95969 30.7348 9.35289 30.3488C9.74608 29.9556 9.94268 29.4051 9.94268 28.6974C9.94268 27.9896 9.74608 27.4499 9.35289 27.0781C8.95969 26.6992 8.31628 26.5098 7.42265 26.5098H4.82755V30.9279ZM15.7012 40V24.3865H21.2024C22.9182 24.3865 24.2515 24.8154 25.2023 25.6733C26.1603 26.5312 26.6393 27.7037 26.6393 29.1907C26.6393 30.692 26.1567 31.8858 25.1916 32.7723C24.2336 33.6517 22.9003 34.0913 21.1917 34.0913H18.5966V40H15.7012ZM18.5966 31.9466H21.0308C22.0317 31.9466 22.7323 31.6964 23.1327 31.196C23.5401 30.6884 23.7439 30.0342 23.7439 29.2336C23.7439 28.4329 23.5401 27.7894 23.1327 27.3033C22.7323 26.8172 22.0317 26.5741 21.0308 26.5741H18.5966V31.9466ZM24.1728 40L20.5483 32.8474L23.4758 32.5471L27.3792 40H24.1728ZM27.4328 40L33.1592 24.3114H36.1618L41.9418 40H38.907L34.9393 28.6974C34.8535 28.4472 34.782 28.2112 34.7248 27.9896C34.6748 27.768 34.6247 27.5464 34.5747 27.3248H34.4889C34.446 27.5464 34.396 27.768 34.3388 27.9896C34.2816 28.2112 34.2101 28.4472 34.1243 28.6974L30.178 40H27.4328ZM30.4139 36.3647L31.0788 34.2093H38.1242L38.789 36.3647H30.4139ZM43.368 40V24.3865H46.2634V31.1852L52.1506 24.3865H55.3248L46.2634 34.6382V40H43.368ZM52.5152 40L47.0033 32.2898L48.837 30.2094L55.9896 40H52.5152ZM57.1799 40V24.3865H67.2815V26.6385H60.0431V30.8743H66.3057V33.0726H60.0431V37.7588H67.3995V40H57.1799Z" fill="white"/>
<path d="M89.0809 236.657V236.325H91.9548V236.603C91.9548 237.433 92.2158 238.055 92.7376 238.469C93.2667 238.884 94.003 239.091 94.9467 239.091C95.8904 239.091 96.6124 238.891 97.1128 238.491C97.6133 238.09 97.8635 237.561 97.8635 236.904C97.8635 236.26 97.6204 235.756 97.1343 235.392C96.6482 235.027 95.658 234.634 94.1639 234.212C92.5267 233.754 91.3114 233.168 90.5179 232.453C89.7315 231.738 89.3383 230.755 89.3383 229.504C89.3383 228.182 89.8316 227.117 90.8181 226.309C91.8118 225.494 93.1559 225.086 94.8502 225.086C96.5373 225.086 97.8885 225.501 98.9037 226.33C99.926 227.159 100.437 228.26 100.437 229.633V229.933H97.5954V229.697C97.5954 228.975 97.3666 228.396 96.9091 227.96C96.4516 227.524 95.7724 227.306 94.8716 227.306C93.9565 227.306 93.2845 227.488 92.8556 227.853C92.4338 228.21 92.2229 228.697 92.2229 229.311C92.2229 229.898 92.4552 230.352 92.9199 230.673C93.3846 230.995 94.3712 231.367 95.8796 231.788C97.4882 232.246 98.6999 232.847 99.5149 233.59C100.33 234.326 100.741 235.37 100.748 236.721C100.748 238.137 100.219 239.256 99.161 240.078C98.1101 240.893 96.7089 241.3 94.9574 241.3C93.213 241.3 91.7975 240.9 90.7109 240.099C89.6242 239.299 89.0809 238.151 89.0809 236.657ZM101.703 227.638V225.387H113.927V227.638H109.263V241H106.367V227.638H101.703ZM115.75 241V225.387H125.852V227.638H118.614V231.874H124.876V234.073H118.614V238.759H125.97V241H115.75ZM128.19 241V225.387H138.291V227.638H131.053V231.874H137.315V234.073H131.053V238.759H138.409V241H128.19ZM140.629 241V225.387H146.13C147.846 225.387 149.179 225.815 150.13 226.673C151.088 227.531 151.567 228.704 151.567 230.191C151.567 231.692 151.084 232.886 150.119 233.772C149.161 234.652 147.828 235.091 146.119 235.091H143.524V241H140.629ZM143.524 232.947H145.959C146.96 232.947 147.66 232.696 148.06 232.196C148.468 231.688 148.672 231.034 148.672 230.234C148.672 229.433 148.468 228.789 148.06 228.303C147.66 227.817 146.96 227.574 145.959 227.574H143.524V232.947ZM149.101 241L145.476 233.847L148.404 233.547L152.307 241H149.101Z" fill="white"/>
<path d="M277.943 241V225.387H288.045V227.638H280.807V231.874H287.069V234.073H280.807V238.759H288.163V241H277.943ZM289.589 235.434V233.032H295.723V235.434H289.589ZM297.975 241V225.387H303.573C305.21 225.387 306.486 225.723 307.401 226.395C308.316 227.059 308.774 228.089 308.774 229.483C308.774 230.348 308.57 231.059 308.162 231.617C307.762 232.175 307.262 232.557 306.661 232.764V232.807C307.405 233.022 308.016 233.44 308.495 234.062C308.974 234.684 309.213 235.51 309.213 236.539C309.213 237.947 308.727 239.045 307.755 239.831C306.783 240.61 305.489 241 303.873 241H297.975ZM300.828 238.898H303.723C304.617 238.898 305.274 238.673 305.696 238.223C306.118 237.772 306.329 237.161 306.329 236.389C306.329 235.624 306.118 235.016 305.696 234.566C305.274 234.115 304.617 233.89 303.723 233.89H300.828V238.898ZM300.828 231.928H303.423C304.316 231.928 304.96 231.735 305.353 231.349C305.746 230.956 305.943 230.405 305.943 229.697C305.943 228.99 305.746 228.45 305.353 228.078C304.96 227.699 304.316 227.51 303.423 227.51H300.828V231.928ZM311.701 241V225.387H317.202C318.918 225.387 320.251 225.815 321.202 226.673C322.16 227.531 322.639 228.704 322.639 230.191C322.639 231.692 322.157 232.886 321.192 233.772C320.234 234.652 318.9 235.091 317.192 235.091H314.597V241H311.701ZM314.597 232.947H317.031C318.032 232.947 318.732 232.696 319.133 232.196C319.54 231.688 319.744 231.034 319.744 230.234C319.744 229.433 319.54 228.789 319.133 228.303C318.732 227.817 318.032 227.574 317.031 227.574H314.597V232.947ZM320.173 241L316.548 233.847L319.476 233.547L323.379 241H320.173ZM323.433 241L329.159 225.311H332.162L337.942 241H334.907L330.939 229.697C330.853 229.447 330.782 229.211 330.725 228.99C330.675 228.768 330.625 228.546 330.575 228.325H330.489C330.446 228.546 330.396 228.768 330.339 228.99C330.282 229.211 330.21 229.447 330.124 229.697L326.178 241H323.433ZM326.414 237.365L327.079 235.209H334.124L334.789 237.365H326.414ZM339.368 241V225.387H342.263V232.185L348.151 225.387H351.325L342.263 235.638V241H339.368ZM348.515 241L343.003 233.29L344.837 231.209L351.99 241H348.515ZM353.18 241V225.387H363.282V227.638H356.043V231.874H362.306V234.073H356.043V238.759H363.399V241H353.18Z" fill="white"/>
<defs>
<clipPath id="clip0_550_219">
<rect width="114.814" height="114.814" fill="white" transform="translate(62.5918 96.1855)"/>
</clipPath>
</defs>
</svg>
