<svg width="64" height="64" viewBox="0 0 64 64" fill="none" xmlns="http://www.w3.org/2000/svg">
<path d="M32 2C48.5685 2 62 15.4315 62 32C62 48.5685 48.5685 62 32 62C15.4315 62 2 48.5685 2 32C2 15.4315 15.4315 2 32 2ZM18.7021 15.874L29.1172 35.7979V48H35.1406V35.6875L45.4668 15.874H39.5537L33.4414 27.8994C33.2356 28.2964 33.0514 28.6638 32.8896 29.002C32.7426 29.3256 32.6031 29.6791 32.4707 30.0615H32.3604C32.2133 29.6792 32.0592 29.3187 31.8975 28.9805C31.7504 28.6423 31.574 28.2817 31.3682 27.8994L25.2783 15.874H18.7021Z" fill="white"/>
</svg>
