<svg width="64" height="64" viewBox="0 0 64 64" fill="none" xmlns="http://www.w3.org/2000/svg">
<path d="M32 2C48.5685 2 62 15.4315 62 32C62 48.5685 48.5685 62 32 62C15.4315 62 2 48.5685 2 32C2 15.4315 15.4315 2 32 2ZM29.5879 15.8076L18.7314 48H24.4688L26.79 40.6084H38.543L40.9062 48H47.0186L36.1631 15.8076H29.5879ZM32.6768 21.8535C32.7944 22.2801 32.9049 22.7218 33.0078 23.1777C33.1255 23.6189 33.2728 24.119 33.4492 24.6777L37.1738 36.3281H28.1348L31.7939 24.6777C31.9704 24.1189 32.1177 23.6189 32.2354 23.1777C32.353 22.7217 32.4634 22.2801 32.5664 21.8535H32.6768Z" fill="white"/>
</svg>
