<svg width="64" height="64" viewBox="0 0 64 64" fill="none" xmlns="http://www.w3.org/2000/svg">
<path d="M32 2C48.5685 2 62 15.4315 62 32C62 48.5685 48.5685 62 32 62C15.4315 62 2 48.5685 2 32C2 15.4315 15.4315 2 32 2ZM28.5879 14.8076L17.7314 47H23.4688L25.79 39.6084H37.543L39.9062 47H46.0186L35.1631 14.8076H28.5879ZM31.6768 20.8535C31.7944 21.2801 31.9049 21.7218 32.0078 22.1777C32.1255 22.6189 32.2728 23.119 32.4492 23.6777L36.1738 35.3281H27.1348L30.7939 23.6777C30.9704 23.1189 31.1177 22.6189 31.2354 22.1777C31.353 21.7217 31.4634 21.2801 31.5664 20.8535H31.6768Z" fill="white"/>
</svg>
