<svg width="128" height="64" viewBox="0 0 128 64" fill="none" xmlns="http://www.w3.org/2000/svg">
<path d="M75.9819 14.9999C74.8195 14.9852 73.7071 15.4118 72.8403 16.1864L67.5679 20.8983C66.4402 21.9063 65.867 23.3953 66.0268 24.8993L68.1723 45.0917C68.4264 47.4816 70.4428 49.2946 72.8462 49.2948H121.379C123.975 49.2946 126.097 47.1884 125.997 44.5946C125.439 30.2122 121.701 20.3075 104.575 16.8632C97.2477 15.3895 81.3315 15.0674 75.9819 14.9999ZM103.347 25.2264C105.194 25.2264 106.627 25.6091 107.644 26.3739C108.669 27.1307 109.182 28.299 109.182 29.8778C109.182 30.8623 108.954 31.6764 108.499 32.3192C108.043 32.9537 107.473 33.3889 106.79 33.6249V33.6737C107.636 33.9097 108.332 34.3863 108.877 35.1024C109.423 35.8185 109.695 36.7627 109.695 37.9344C109.695 39.5374 109.146 40.7828 108.047 41.6698C106.957 42.5567 105.504 42.9999 103.689 42.9999H96.9751V25.2264H103.347ZM88.0522 25.2264C89.9889 25.2264 91.4901 25.7149 92.5561 26.6913C93.6304 27.6678 94.1675 28.9989 94.1675 30.6835C94.1674 32.3841 93.6267 33.7389 92.5444 34.7479C92.1464 35.119 91.6915 35.4215 91.1802 35.6561L95.0102 42.9999H91.3481L87.9634 36.2616H85.0854V42.9999H81.7895V25.2264H88.0522ZM100.222 40.62H103.458C104.475 40.62 105.219 40.363 105.691 39.8505C106.171 39.3379 106.412 38.6422 106.412 37.7635C106.412 36.8846 106.171 36.1884 105.691 35.6757C105.219 35.1631 104.475 34.9071 103.458 34.9071H100.222V40.62ZM85.0854 33.8446H87.8198C88.9427 33.8446 89.7322 33.5596 90.188 32.9901C90.6437 32.4123 90.8716 31.6636 90.8716 30.744C90.8716 29.8326 90.6437 29.1001 90.188 28.5468C89.7322 27.9935 88.9427 27.7131 87.8198 27.705H85.0854V33.8446ZM100.222 32.6971H103.127C104.128 32.6971 104.849 32.4737 105.289 32.0262C105.736 31.5787 105.959 30.9518 105.959 30.1464C105.959 29.3327 105.736 28.7141 105.289 28.2909C104.849 27.8596 104.128 27.6434 103.127 27.6434H100.222V32.6971Z" fill="white"/>
<path d="M52.0186 14.9999C46.6692 15.0674 30.7529 15.3895 23.4258 16.8632C6.29871 20.3074 2.56052 30.2121 2.00296 44.5946C1.90241 47.1886 4.0252 49.2948 6.62113 49.2948H55.1534C57.5569 49.2948 59.573 47.4817 59.8272 45.0917L61.9737 24.8993C62.1335 23.3952 61.5595 21.9063 60.4317 20.8983L55.1602 16.1864C54.2934 15.4117 53.181 14.9853 52.0186 14.9999ZM39.4405 25.2264C41.2876 25.2264 42.7201 25.6091 43.7373 26.3739C44.7627 27.1307 45.2754 28.299 45.2754 29.8778C45.2753 30.8623 45.0475 31.6764 44.5918 32.3192C44.1362 32.9537 43.5663 33.3889 42.8828 33.6249V33.6737C43.7292 33.9097 44.4255 34.3863 44.9707 35.1024C45.5158 35.8185 45.7881 36.7628 45.7881 37.9344C45.788 39.5374 45.2392 40.7828 44.1407 41.6698C43.0502 42.5567 41.5969 42.9999 39.7823 42.9999H33.0684V25.2264H39.4405ZM23.1319 40.4247H30.835V42.9999H19.836V25.2264H23.1319V40.4247ZM36.3155 40.62H39.5508C40.5679 40.62 41.3122 40.363 41.7842 39.8505C42.2643 39.3379 42.5048 38.6422 42.5049 37.7635C42.5049 36.8846 42.2644 36.1884 41.7842 35.6757C41.3122 35.1631 40.5679 34.9071 39.5508 34.9071H36.3155V40.62ZM36.3155 32.6971H39.2207C40.2216 32.6971 40.9424 32.4737 41.3819 32.0262C41.8294 31.5787 42.0527 30.9518 42.0528 30.1464C42.0528 29.3327 41.8293 28.7141 41.3819 28.2909C40.9424 27.8596 40.2217 27.6434 39.2207 27.6434H36.3155V32.6971Z" fill="white"/>
</svg>
