<svg width="96" height="96" viewBox="0 0 96 96" fill="none" xmlns="http://www.w3.org/2000/svg">
<path d="M73.5359 8.96094C79.6681 8.96094 83.6206 15.9876 81.1247 21.5889C77.8416 28.9569 74.5925 38.6487 74.5925 48.1523C74.5926 57.6559 77.8416 67.3479 81.1247 74.7158C83.6203 80.317 79.6191 87.2659 73.5261 86.5752C21.6607 80.6957 15.6198 42.376 14.9382 16.6377C14.8258 12.3951 18.2947 8.96108 22.5388 8.96094H73.5359ZM31.3855 33.8447V60.3896H36.3259V50.3076H40.3064L45.1862 60.3896H50.6374L45.0759 49.4395C45.8407 49.0802 46.5222 48.611 47.1189 48.0283C48.6867 46.4969 49.4704 44.4793 49.4704 41.9756C49.4704 39.4963 48.7049 37.5214 47.1736 36.0508C45.6543 34.5802 43.5154 33.8448 40.7566 33.8447H31.3855ZM50.0544 33.8447V37.7646H57.6931V60.3896H62.6521V37.7646H70.2722V33.8447H50.0544ZM40.1726 37.5273C41.7769 37.5395 42.9015 37.9715 43.5456 38.8223C44.1897 39.6609 44.5124 40.7609 44.5124 42.1221C44.5124 43.4953 44.1897 44.6137 43.5456 45.4766C42.9014 46.3393 41.7768 46.7705 40.1726 46.7705H36.3259V37.5273H40.1726Z" fill="white"/>
</svg>
