<svg width="64" height="64" viewBox="0 0 64 64" fill="none" xmlns="http://www.w3.org/2000/svg">
<path d="M32 2C48.5685 2 62 15.4315 62 32C62 48.5685 48.5685 62 32 62C15.4315 62 2 48.5685 2 32C2 15.4315 15.4315 2 32 2ZM22.9238 15.874V48H35.0156C38.1487 48 40.635 47.2126 42.4736 45.6387C44.3267 44.05 45.2529 41.829 45.2529 38.9756C45.2529 36.7839 44.7609 35.0405 43.7754 33.7461C42.8046 32.4371 41.554 31.577 40.0244 31.165V31.0762C41.2598 30.6348 42.2751 29.826 43.0693 28.6494C43.8636 27.458 44.2607 25.9575 44.2607 24.1484C44.2607 21.3977 43.4143 19.331 41.7227 17.9482C40.0458 16.5656 37.6117 15.8741 34.4199 15.874H22.9238ZM34.1768 33.3271C35.9125 33.3271 37.1929 33.8056 38.0166 34.7617C38.84 35.703 39.2519 36.9752 39.252 38.5781C39.252 40.1667 38.8402 41.4249 38.0166 42.3516C37.1929 43.2783 35.9125 43.7412 34.1768 43.7412H28.793V33.3271H34.1768ZM33.625 20.2207C35.3313 20.2354 36.5671 20.6325 37.332 21.4121C38.0969 22.1917 38.4795 23.3317 38.4795 24.832C38.4795 26.3471 38.0969 27.5239 37.332 28.3623C36.5671 29.186 35.3313 29.5977 33.625 29.5977H28.793V20.2207H33.625Z" fill="white"/>
</svg>
