<svg width="64" height="64" viewBox="0 0 64 64" fill="none" xmlns="http://www.w3.org/2000/svg">
<path d="M32 2C48.5685 2 62 15.4315 62 32C62 48.5685 48.5685 62 32 62C15.4315 62 2 48.5685 2 32C2 15.4315 15.4315 2 32 2ZM33.1699 16.4551C32.6209 15.6085 31.3811 15.6085 30.832 16.4551L20.7939 31.9326C20.193 32.8591 20.8577 34.0827 21.9619 34.083H28.4824V45.8965C28.4824 47.0888 29.4493 48.0557 30.6416 48.0557H33.3604C34.5526 48.0556 35.5195 47.0887 35.5195 45.8965V34.083H42.04C43.1443 34.0827 43.809 32.8592 43.208 31.9326L33.1699 16.4551Z" fill="white"/>
</svg>
