<svg width="128" height="64" viewBox="0 0 128 64" fill="none" xmlns="http://www.w3.org/2000/svg">
<path d="M107.237 6C111.343 6.00028 113.989 10.7048 112.318 14.4551C110.12 19.3885 107.944 25.8778 107.944 32.2412C107.944 38.6046 110.12 45.0939 112.318 50.0273C113.989 53.7778 111.31 58.4302 107.23 57.9678C72.503 54.0311 68.4582 28.3743 68.0018 11.1406C67.9265 8.29986 70.2489 6.00007 73.0906 6H107.237ZM79.1961 22.2266V40H82.492V33.2617H85.369L88.7537 40H92.4158L88.5858 32.6553C89.097 32.4207 89.5521 32.119 89.95 31.748C91.0323 30.739 91.5739 29.3842 91.574 27.6836C91.574 25.9992 91.0368 24.6679 89.9627 23.6914C88.8966 22.7148 87.3947 22.2266 85.4578 22.2266H79.1961ZM92.0496 22.2266V24.8027H97.3231V40H100.619V24.8027H105.892V22.2266H92.0496ZM85.2264 24.7051C86.3492 24.7133 87.1389 24.9936 87.5946 25.5469C88.0501 26.1002 88.2781 26.8328 88.2781 27.7441C88.2781 28.6636 88.0502 29.4125 87.5946 29.9902C87.1389 30.5598 86.3492 30.8446 85.2264 30.8447H82.492V24.7051H85.2264Z" fill="white"/>
<path d="M54.7356 6C57.5773 6.00003 59.8997 8.29984 59.8244 11.1406C59.368 28.3743 55.3233 54.0311 20.5959 57.9678C16.5161 58.4302 13.8369 53.7778 15.508 50.0273C17.7063 45.0939 19.882 38.6046 19.882 32.2412C19.882 25.8778 17.7063 19.3885 15.508 14.4551C13.8371 10.7048 16.4835 6.00033 20.5891 6H54.7356ZM26.0754 22.2266V40H37.0735V37.4248H29.3713V22.2266H26.0754ZM35.6086 22.2266V24.8027H40.882V40H44.1779V24.8027H49.4514V22.2266H35.6086Z" fill="white"/>
</svg>
