<svg width="64" height="64" viewBox="0 0 64 64" fill="none" xmlns="http://www.w3.org/2000/svg">
<path d="M32 2C48.5685 2 62 15.4315 62 32C62 48.5685 48.5685 62 32 62C15.4315 62 2 48.5685 2 32C2 15.4315 15.4315 2 32 2ZM30.6396 15.8203C29.4474 15.8204 28.4805 16.7872 28.4805 17.9795V29.793H21.96C20.8557 29.7933 20.191 31.0168 20.792 31.9434L30.8301 47.4209C31.3791 48.2675 32.6189 48.2675 33.168 47.4209L43.2061 31.9434C43.807 31.0168 43.1423 29.7933 42.0381 29.793H35.5176V17.9795C35.5176 16.7872 34.5507 15.8203 33.3584 15.8203H30.6396Z" fill="white"/>
</svg>
